**ABCDEFGHIJKLMNOPQRSTUVWXYZabcdefghijklmnopqrstuvwxyz**************************
**PARASOLID !"#$%&'()*+,-./:;<=>?@[\]^_`{|}~0123456789**************************
**PART1;
MC=AMD64;
MC_MODEL=Intel64 Family 6 Model 142 Stepping 11, GenuineIntel;
MC_ID=unknown;
OS=Windows_NT;
OS_RELEASE=unknown;
FRU=Parasolid Version 35.1, build 251, 11- 4-2023;
APPL=SOLIDWORKS 2024-2024016;
SITE=;
USER=unknown;
FORMAT=text;
GUISE=transmit;
KEY=Car2;
FILE=Car2.x_t;
DATE=Mon Jan 20 16:10:28 2025;
**PART2;
SCH=SCH_3501251_35102;
USFLD_SIZE=0;
**PART3;
**END_OF_HEADER*****************************************************************
T51 : TRANSMIT FILE created by modeller version 350125123 SCH_3501251_35102_1300
6231 0 10 21 CCCCI7 lattice222 0 CCCI4 mesh1006 0 I8 polyline1008 0 CCCCCCCCCCA1
6 mesh_offset_data206 0 Z1 9 2 3 0 0 0 0 0 0 0 0 1e3 1e-8 0 0 0 1 0 1 4 0 81 255
 1 2 9 5 1 0 0 0 0 0 70 11 CI9 list_type0 0 1 uI10 notransmit0 0 1 lCCCDCCDI12 f
inger_index0 0 1 dI12 finger_block1012 0 CZ3 0 4 T1 0 0 1 20 1 6 6 11 255 4 7 0
 1 7 8 1 9 0 9 0 12 36 CCCI7 lattice222 0 CCCI4 mesh1006 0 I8 polyline1008 0 CCC
CCCCDI5 owner1040 0 CCCI16 boundary_lattice222 0 CCCI13 boundary_mesh1006 0 I17
 boundary_polyline1008 0 CCCA16 index_map_offset0 0 1 dA9 index_map82 0 A17 node
_id_index_map82 0 A20 schema_embedding_map82 0 A5 child12 0 A14 lowest_node_id0
 0 1 dA16 mesh_offset_data206 0 Z7 393 10 11 0 0 0 0 0 0 0 1e3 1e-8 4 12 0 1 0 1
 1 13 0 14 15 16 0 0 17 18 19 0 0 0 0 0 0 0 100 10 CCCCCCCCCA9 precision229 0 Z8
 8 4 0 0 1 0 0 0 1 0 0 0 1 .0480835152216734 .0669814431495368 .0025000000046566
15 1 1 ?0 11 9 5 0 1 7 20 1 21 4 0 4 100 20 6 9 0 0 1 0 0 0 1 0 0 0 1 -.01369196
587148692 .01325998518462236 -.000439043874979882 1 1 ?0 11 21 3 0 1 12 22 1 23
 9 0 0 12 12 91 24 25 0 0 0 0 0 0 0 1e3 1e-8 21 26 7 1 0 1 1 27 0 28 0 0 0 0 29
 0 0 0 0 0 0 0 0 0 100 22 4 21 0 0 1 0 0 0 0 1 0 -1 0 .21854208668484 .116719531
3467032 .2359931129385175 1 3 ?0 11 23 1 0 1 26 30 1 0 21 0 0 12 26 1758 31 32 0
 0 0 0 0 0 0 1e3 1e-8 23 33 12 1 0 1 1 34 0 35 36 37 0 0 38 39 40 0 0 0 0 0 0 0
 100 30 2 23 0 0 1 0 0 0 1 0 0 0 1 0 0 0 1 0 ?0 81 1 31 1758 5 26 41 0 0 0 42 70
 32 0 4 T26 0 0 4 20 1 43 43 13 255 34 99 0 26 0 44 0 0 45 0 50 255 35 94 0 46 4
7 0 0 +.12 .2 .12 -1 0 0 0 0 1 30 255 36 98 0 39 48 0 0 +.12 .2 -.12 0 -1 0 29 2
55 37 880 0 40 49 0 -.12 .03 .12 19 9 CCCCCCI5 frame230 0 CA5 owner12 0 Z38 33 0
 26 45 0 50 0 V0 16 255 39 82 0 ?51 0 52 36 0 0 26 18 255 40 878 0 53 0 54 37 ?2
6 17 255 53 0 55 56 57 40 58 59 0 60 +18 54 696 0 61 40 62 49 ?26 17 61 0 63 64
 65 54 66 67 0 68 +18 62 327 0 69 54 70 71 ?26 29 49 698 0 54 71 37 .03 .08 .12
 29 71 331 0 62 72 49 .12 0 .12 29 72 77 0 73 74 71 -.12 0 -.12 18 73 68 0 75 76
 77 72 ?26 29 74 78 0 77 78 72 .12 0 -.12 18 77 69 0 79 73 80 74 ?26 29 78 32 0
 70 81 74 .12 .2 .12 18 70 30 0 82 62 83 78 ?26 29 81 29 0 83 84 78 -.12 .2 .12
 18 83 27 0 85 70 86 81 ?26 29 84 26 0 86 87 81 -.12 .2 -.12 18 86 24 0 88 83 76
 84 ?26 29 87 23 0 76 89 84 .12 .2 -.12 18 76 21 0 90 86 73 87 ?26 29 89 314 0 8
0 91 87 -.12 0 .18 18 80 273 0 92 77 93 89 ?26 29 91 316 0 93 94 89 .12 0 .18 18
 93 270 0 95 80 96 91 ?26 29 94 412 0 96 97 91 .15 0 .18 18 96 358 0 98 93 99 94
 ?26 29 97 413 0 99 100 94 .15 .08 .18 18 99 357 0 101 96 102 97 ?26 29 100 414
 0 102 103 97 .15 .08 .12 18 102 356 0 104 99 105 100 ?26 29 103 415 0 105 106 1
00 .15 0 .12 18 105 354 0 107 102 108 103 ?26 29 106 503 0 109 110 103 -.12 0 .1
2 18 109 451 0 111 112 113 106 ?26 29 110 504 0 108 114 106 -.15 .08 .12 18 108
 449 0 115 105 116 110 ?26 29 114 505 0 116 117 110 -.15 .08 .18 18 116 448 0 11
8 108 119 114 ?26 29 117 506 0 119 120 114 -.15 0 .18 18 119 447 0 121 116 112 1
17 ?26 29 120 507 0 112 122 117 -.15 0 .12 18 112 445 0 123 119 109 120 ?26 29 1
22 653 0 113 124 120 .12 .04 .15 18 113 600 0 125 109 126 122 ?26 29 124 654 0 1
26 127 122 -.12 .04 .15 18 126 596 0 128 113 129 124 ?26 29 127 655 0 129 130 12
4 .12 .08 .18 18 129 598 0 131 126 132 127 ?26 29 130 658 0 132 133 127 -.12 .08
 .18 18 132 595 0 134 129 135 130 ?26 29 133 835 0 136 137 130 .12 .135 .12 18 1
36 781 0 138 139 140 133 ?26 29 137 836 0 140 141 133 .12 .135 .115 18 140 778 0
 142 136 143 137 ?26 29 141 837 0 143 144 137 .12 .03 .115 18 143 779 0 145 140
 146 141 ?26 29 144 838 0 146 147 141 .12 .03 .12 18 146 783 0 148 143 149 144 ?
26 29 147 839 0 135 150 144 .03 .135 .12 18 135 782 0 151 132 152 147 ?26 29 150
 840 0 152 153 147 .03 .135 .115 18 152 776 0 154 135 155 150 ?26 29 153 841 0 1
55 156 150 .03 .03 .115 18 155 777 0 157 152 139 153 ?26 29 156 842 0 139 158 15
3 .03 .03 .12 18 139 775 0 159 155 136 156 ?26 29 158 1015 0 149 160 156 -.03 .0
8 .12 18 149 957 0 161 146 162 158 ?26 29 160 1018 0 163 164 158 -.12 .03 .115 1
8 163 962 0 57 165 166 160 ?26 29 164 1019 0 166 167 160 -.12 .135 .115 18 166 9
63 0 168 163 169 164 ?26 29 167 1020 0 169 170 164 -.12 .135 .12 18 169 965 0 17
1 166 0 167 ?26 29 170 1021 0 162 172 167 -.03 .03 .12 18 162 964 0 173 149 174
 170 ?26 29 172 1022 0 174 175 170 -.03 .03 .115 18 174 959 0 176 162 177 172 ?2
6 29 175 1023 0 177 178 172 -.03 .135 .115 18 177 961 0 179 174 165 175 ?26 29 1
78 1024 0 165 0 175 -.03 .135 .12 18 165 958 0 180 177 163 178 ?26 17 180 0 181
 182 183 165 65 184 0 185 +15 255 181 990 0 183 186 0 17 182 0 181 187 180 177 1
85 188 0 0 +17 183 0 181 180 189 149 173 190 0 65 +17 65 0 63 61 191 149 180 184
 0 66 -16 184 919 0 ?180 190 59 192 190 190 26 17 185 0 193 171 179 165 182 188
 0 191 -15 193 987 0 194 195 0 17 171 0 193 194 185 169 191 196 0 197 +17 179 0
 193 185 194 177 168 198 0 199 -16 188 933 0 ?182 200 190 201 0 0 26 17 191 0 63
 65 202 165 171 196 0 0 -15 63 83 0 202 203 0 17 202 0 63 191 204 169 205 206 0
 0 +16 196 924 0 ?171 198 207 208 0 0 26 16 198 936 0 ?168 209 196 210 0 0 26 16
 207 925 0 ?189 196 200 211 0 0 26 30 208 1003 0 196 210 212 0 +-.03 .135 .12 -1
 0 0 30 210 1004 0 198 213 208 0 +-.03 .135 .115 -1 0 0 30 212 832 0 214 208 215
 0 +.03 .135 .12 0 -1 2523234146875355e-31 16 214 750 0 ?216 217 218 212 218 218
 26 30 215 831 0 217 212 219 0 +.03 .03 .12 0 -693889390390722e-30 -1 16 217 746
 0 ?220 221 214 215 0 0 26 30 219 830 0 221 215 222 0 +.03 .03 .115 0 1 0 16 221
 742 0 ?223 224 217 219 0 0 26 30 222 829 0 224 219 225 0 +.03 .135 .115 0 0 1 1
6 224 738 0 ?226 227 221 222 0 0 26 30 225 827 0 228 222 229 0 +.12 .03 .12 0 -6
93889390390722e-30 -1 16 228 768 0 ?230 231 232 225 0 0 26 30 229 826 0 231 225
 233 0 +.12 .03 .115 0 1 0 16 231 771 0 ?234 235 228 229 0 0 26 30 233 825 0 235
 229 236 0 +.12 .135 .115 0 0 1 16 235 755 0 ?138 218 231 233 0 0 26 30 236 824
 0 237 233 238 0 +.03 .135 .12 1 0 0 16 237 741 0 ?239 240 241 236 0 0 26 30 238
 823 0 241 236 242 0 +.03 .135 .115 1 0 0 16 241 745 0 ?142 237 243 238 0 0 26 3
0 242 822 0 243 238 244 0 +.03 .03 .115 1 0 0 16 243 749 0 ?145 241 227 242 0 0
 26 30 244 821 0 227 242 245 0 +.03 .03 .12 1 0 0 16 227 737 0 ?148 243 224 244
 0 0 26 30 245 650 0 246 244 247 0 +-.12 0 .12 0 -.8 -.6 16 246 574 0 ?128 248 2
40 245 0 0 26 30 247 648 0 248 245 249 0 +.12 0 .12 0 -.8 -.6 16 248 573 0 ?250
 251 246 247 0 0 26 30 249 644 0 240 247 252 0 +.22 .08 .18 -1 0 0 16 240 578 0
 ?134 246 237 249 0 0 26 30 252 642 0 251 249 253 0 +-.22 .04 .15 1 0 0 16 251 5
77 0 ?125 254 248 252 0 0 26 30 253 499 0 255 252 256 0 +-.15 0 .12 0 -1 -173472
3475976805e-31 16 255 439 0 ?257 258 259 253 0 0 26 30 256 498 0 258 253 260 0 +
-.15 0 .18 0 0 1 16 258 440 0 ?121 261 255 256 0 0 26 30 260 497 0 261 256 262 0
 +-.15 .08 .18 0 1 0 16 261 441 0 ?118 263 258 260 0 0 26 30 262 496 0 263 260 2
64 0 +-.15 .08 .12 0 2312964634635745e-31 -1 16 263 442 0 ?265 266 261 262 0 0 2
6 30 264 495 0 254 262 267 0 +-.12 0 .12 0 -1 -1734723475976805e-31 16 254 879 0
 ?111 259 251 264 0 0 26 30 267 493 0 259 264 268 0 +-.12 .08 .18 0 1 0 16 259 4
35 0 ?269 255 254 267 0 0 26 30 268 490 0 266 267 270 0 +-.15 .08 .18 1 0 0 16 2
66 438 0 ?271 272 263 268 0 0 26 30 270 489 0 272 268 273 0 +-.15 0 .18 1 0 0 16
 272 436 0 ?274 275 266 270 0 0 26 30 273 488 0 275 270 276 0 +-.15 0 .12 1 0 0
 16 275 434 0 ?277 278 272 273 0 0 26 30 276 407 0 279 273 280 0 +.15 0 .18 0 0
 -1 16 279 348 0 ?281 282 283 276 0 0 26 30 280 406 0 282 276 284 0 +.15 0 .12 0
 1 1734723475976805e-31 16 282 349 0 ?104 285 279 280 0 0 26 30 284 405 0 285 28
0 286 0 +.15 .08 .12 0 -2312964634635745e-31 1 16 285 350 0 ?101 287 282 284 0 0
 26 30 286 404 0 287 284 288 0 +.15 .08 .18 0 -1 0 16 287 351 0 ?98 289 285 286
 0 0 26 30 288 402 0 278 286 290 0 +.12 0 .12 0 1 1734723475976805e-31 16 278 34
2 0 ?291 283 275 288 0 0 26 30 290 400 0 283 288 292 0 +.12 .08 .18 0 -1 0 16 28
3 346 0 ?293 279 278 290 0 0 26 30 292 399 0 289 290 294 0 +.15 0 .18 -1 0 0 16
 289 341 0 ?295 296 287 292 0 0 26 30 294 398 0 296 292 297 0 +.15 .08 .18 -1 0
 0 16 296 347 0 ?298 299 289 294 0 0 26 30 297 397 0 299 294 300 0 +.15 .08 .12
 -1 0 0 16 299 345 0 ?68 301 296 297 0 0 26 30 300 396 0 301 297 302 0 +.15 0 .1
2 -1 0 0 16 301 343 0 ?303 304 299 300 0 0 26 30 302 307 0 304 300 305 0 +.12 .0
8 .12 0 .8 -.6 16 304 257 0 ?306 67 301 302 0 0 26 30 305 306 0 307 302 308 0 +-
.22 .08 .12 1 0 0 16 307 266 0 ?161 309 67 305 67 67 26 30 308 305 0 309 305 310
 0 +-.22 0 .18 1 0 0 16 309 256 0 ?95 311 307 308 0 0 26 30 310 303 0 311 308 31
2 0 +-.12 .08 .12 0 -.8 .6 16 311 540 0 ?92 313 309 310 0 0 26 30 312 7 0 314 31
0 315 0 +.12 .2 .12 0 0 -1 16 314 5 0 ?316 317 318 312 0 0 26 30 315 11 0 317 31
2 319 0 +-.12 .2 -.12 -1 0 0 16 317 9 0 ?88 320 314 315 0 0 26 30 319 15 0 320 3
15 321 0 +-.12 .2 .12 0 0 1 16 320 13 0 ?85 322 317 319 0 0 26 30 321 19 0 322 3
19 323 0 +-.12 .2 .12 1 0 0 16 322 17 0 ?82 324 320 321 0 0 26 30 323 74 0 313 3
21 325 0 +.12 0 .12 0 0 -1 16 313 328 0 ?79 326 311 323 0 0 26 30 325 73 0 326 3
23 327 0 +-.12 0 -.12 -1 0 0 16 326 58 0 ?75 318 313 325 0 0 26 30 327 72 0 318
 325 328 0 +-.12 0 .12 0 0 1 16 318 54 0 ?329 314 326 327 0 0 26 30 328 95 0 324
 327 330 0 +.12 .2 .12 0 -1 0 16 324 79 0 ?331 206 322 328 0 0 26 30 330 96 0 20
6 328 48 0 +-.12 .2 .12 0 -1 0 16 206 80 0 ?202 52 324 330 0 0 26 30 48 97 0 52
 330 36 0 +-.12 .2 -.12 0 -1 0 16 52 81 0 ?332 39 206 48 0 0 26 17 332 0 333 329
 334 73 335 52 0 336 +15 333 423 0 337 338 0 17 329 0 333 337 332 109 336 318 0
 277 +17 334 0 333 332 205 86 85 320 0 0 -17 335 0 339 90 75 86 332 52 0 334 -17
 336 0 340 341 277 73 329 318 0 0 -15 340 563 0 277 342 0 17 341 0 340 343 336 7
7 75 326 0 51 -17 277 0 340 336 123 109 344 275 0 0 +17 123 0 340 277 345 112 12
1 258 0 257 -17 344 0 346 347 111 112 277 275 0 0 -15 346 459 0 347 348 0 17 347
 0 346 161 344 108 257 255 0 0 -17 111 0 346 344 60 109 337 254 0 329 +17 60 0 3
46 111 173 40 56 232 0 337 +17 337 0 333 58 329 40 111 254 0 0 -17 58 0 333 349
 337 163 53 59 0 0 -17 349 0 333 197 58 166 350 351 0 0 -16 59 953 0 ?53 184 351
 352 0 0 26 16 351 950 0 ?350 59 353 354 0 0 26 30 352 1008 0 59 354 355 0 +-.12
 .03 .12 0 0 1 30 354 1009 0 351 356 352 0 +-.12 .03 .115 0 -1 0 30 355 1006 0 2
32 352 213 0 +-.03 .03 .12 -1 0 0 16 232 928 0 ?60 228 209 355 0 0 26 30 213 100
5 0 209 355 210 0 +-.03 .03 .115 -1 0 0 16 209 932 0 ?57 232 198 213 0 0 26 17 5
7 0 55 53 357 163 176 209 0 350 +15 55 979 0 53 358 0 17 357 0 55 57 56 174 189
 207 0 187 -17 176 0 359 199 350 174 57 209 0 357 -17 350 0 359 176 168 163 349
 351 0 58 +15 359 983 0 350 360 0 17 168 0 359 350 199 166 179 198 0 194 +17 199
 0 359 168 176 177 187 200 0 182 -17 194 0 193 179 171 166 197 353 0 349 +17 197
 0 333 205 349 169 194 353 0 202 -16 353 947 0 ?194 351 0 356 0 0 26 30 356 1010
 0 353 211 354 0 +-.12 .135 .115 0 0 -1 30 211 1011 0 207 361 356 0 +-.03 .03 .1
2 0 0 1 30 361 1012 0 200 201 211 0 +-.03 .03 .115 0 -1 0 16 200 929 0 ?187 207
 188 361 0 0 26 30 201 1013 0 188 192 361 0 +-.03 .135 .115 0 0 -1 30 192 1014 0
 190 0 201 0 +-.03 .135 .12 0 1 -2523234146875355e-31 16 190 913 0 ?183 188 184
 192 184 184 26 17 187 0 181 189 182 174 199 200 0 0 +17 189 0 181 183 187 162 3
57 207 0 0 +17 205 0 333 334 197 83 202 206 0 204 -17 204 0 63 202 362 83 82 322
 0 0 -17 362 0 63 204 239 70 331 324 0 363 -17 82 0 364 316 85 70 204 322 0 362
 +15 364 4 0 316 365 0 17 316 0 364 88 82 76 363 314 0 366 +17 85 0 364 82 88 83
 334 320 0 205 +17 88 0 364 85 316 86 90 317 0 335 +17 90 0 339 51 335 76 88 317
 0 316 -15 339 87 0 75 367 0 17 51 0 339 75 90 77 366 39 0 0 +17 75 0 339 335 51
 73 341 326 0 332 +17 366 0 368 363 79 76 51 39 0 0 -15 368 333 0 331 46 0 17 36
3 0 368 331 366 70 316 314 0 0 -17 79 0 368 366 69 77 343 313 0 341 +17 69 0 368
 79 369 62 291 278 0 343 -17 343 0 340 370 341 62 79 313 0 303 -17 370 0 340 371
 343 105 303 301 0 0 -17 303 0 372 291 107 62 370 301 0 0 +15 372 371 0 291 373
 0 17 291 0 372 374 303 146 69 278 0 0 +17 107 0 372 303 375 105 104 282 0 281 -
17 375 0 372 107 376 102 68 299 0 377 -17 104 0 378 101 281 102 107 282 0 375 +1
7 281 0 378 104 98 105 371 279 0 370 +15 378 383 0 281 379 0 17 98 0 378 281 101
 96 380 287 0 381 +17 371 0 340 295 370 96 281 279 0 0 -17 295 0 340 382 371 93
 381 289 0 0 +17 382 0 340 345 295 80 95 309 0 274 -17 381 0 383 380 293 96 295
 289 0 371 -15 383 379 0 293 384 0 17 380 0 383 298 381 99 98 287 0 0 -17 293 0
 383 381 298 93 385 283 0 295 +17 298 0 383 293 380 129 386 296 0 385 +17 385 0
 387 250 388 129 293 283 0 0 -15 387 552 0 250 389 0 17 250 0 387 388 385 113 39
0 248 0 306 +17 388 0 387 385 250 93 306 304 0 293 -17 306 0 391 392 95 113 388
 304 0 0 +15 391 558 0 392 44 0 17 392 0 391 92 306 126 125 251 0 393 -17 95 0 3
91 306 92 93 382 309 0 388 +17 92 0 391 95 392 80 393 311 0 382 +17 393 0 394 39
5 396 126 92 311 0 0 -15 394 455 0 393 397 0 17 395 0 394 396 393 132 128 246 0
 269 -17 396 0 394 393 395 80 269 259 0 0 -17 269 0 398 399 274 132 396 259 0 27
1 +15 398 467 0 269 400 0 17 399 0 398 401 269 116 271 266 0 402 -17 274 0 398 2
69 401 80 345 272 0 396 +17 271 0 403 131 402 132 399 266 0 0 +15 403 375 0 68 4
04 0 17 131 0 403 386 271 129 134 240 0 390 -17 402 0 403 271 115 116 265 263 0
 0 -17 115 0 403 402 66 108 161 307 0 265 -17 265 0 405 257 118 108 402 263 0 34
7 +15 405 475 0 257 406 0 17 257 0 405 121 265 112 347 255 0 344 +17 118 0 405 2
65 121 116 401 261 0 399 +17 121 0 405 118 257 119 123 258 0 345 +17 401 0 398 2
74 399 119 118 261 0 0 -17 345 0 340 123 382 119 274 272 0 401 -14 255 406 472 4
07 ?408 400 405 34 409 -0 0 408 400 50 81 1 407 1748 410 406 411 0 412 413 414 1
4 408 607 413 ?415 406 416 34 417 -0 0 415 406 50 14 400 464 412 ?406 348 398 34
 418 -0 0 406 348 50 50 409 487 0 406 417 419 0 +-.15 0 0 1 0 0 0 0 -1 13 50 34
 0 0 0 0 0 0 38 44 14 44 559 420 ?389 0 391 34 421 -0 0 389 0 50 81 1 420 1733 4
10 44 422 0 0 423 424 14 389 554 423 ?397 44 387 34 425 -0 0 397 44 50 50 421 30
0 0 44 426 427 0 +-.22 .08 .12 0 -.6 -.8 0 .8 -.6 50 426 391 0 373 428 421 0 +.1
5 0 .12 0 -1734723475976805e-31 1 0 -1 -1734723475976805e-31 50 427 3 0 365 421
 429 0 +0 .2 0 0 -1 0 0 0 -1 14 365 1 430 ?342 203 364 34 427 -0 0 342 203 50 50
 429 70 0 342 427 431 0 +0 0 0 0 -1 0 0 0 -1 14 342 48 432 ?373 365 340 34 429 +
0 0 373 365 50 50 431 91 0 203 429 433 0 +-.12 .2 .12 0 0 -1 -1 0 0 14 203 84 43
4 ?365 367 63 34 431 -0 0 365 367 50 50 433 92 0 338 431 47 0 +-.12 .2 .12 1 0 0
 0 0 -1 14 338 424 435 ?46 397 333 34 433 -0 0 46 397 50 50 47 93 0 367 433 35 0
 +-.12 .2 -.12 0 0 1 1 0 0 14 367 88 436 ?203 46 339 34 47 -0 0 203 46 50 81 1 4
36 1738 410 367 437 0 438 434 439 14 46 334 438 ?367 338 368 34 35 -0 0 367 338
 50 81 1 438 1737 410 46 440 0 435 436 441 80 7 CCCCCDI12 legal_owners0 16 1 lCZ
1 410 0 442 8001 0 0 0 0 3 5 0 0 0 FFFFTFTFFFFFFFFF2 81 1 440 1681 443 46 0 438
 437 444 445 81 1 435 1736 410 338 446 0 447 438 448 83 255 3 441 .7921568627450
98 .819607843137255 .933333333333333 81 1 446 1674 443 338 0 435 449 437 450 81
 1 447 1735 410 397 444 0 423 435 451 83 3 448 .792156862745098 .819607843137255
 .933333333333333 14 397 545 447 ?338 389 394 34 419 +0 0 338 389 50 81 1 444 16
85 443 397 0 447 440 452 453 81 1 423 1734 410 389 454 0 420 447 455 83 3 451 .7
92156862745098 .819607843137255 .933333333333333 81 1 454 1659 443 389 0 423 422
 456 457 83 3 455 .792156862745098 .819607843137255 .933333333333333 80 1 443 45
8 459 9000 1 1 1 1 1 1 1 1 0 FFFFTFTFFFFFFFFF1 81 1 422 1656 443 44 0 420 460 45
4 461 81 1 456 1662 443 365 0 430 454 462 463 82 255 1 457 1908015544 81 1 430 1
740 410 365 456 0 434 432 464 81 1 462 1665 443 342 0 432 456 449 465 82 1 463 -
1360592480 81 1 432 1741 410 342 462 0 430 466 467 81 1 449 1671 443 203 0 434 4
62 446 468 82 1 465 -1354956360 81 1 434 1739 410 203 449 0 436 430 469 82 1 468
 -1354038850 83 3 469 .792156862745098 .819607843137255 .933333333333333 81 1 46
6 1742 410 373 470 0 432 471 472 83 3 467 .792156862745098 .819607843137255 .933
333333333333 14 373 368 466 ?404 342 372 34 426 -0 0 404 342 50 81 1 470 1725 44
3 373 0 466 473 474 475 81 1 471 1743 410 404 476 0 466 477 478 83 3 472 .792156
862745098 .819607843137255 .933333333333333 14 404 372 471 ?384 373 403 34 428 -
0 0 384 373 50 81 1 476 1691 443 404 0 471 452 479 480 81 1 477 1744 410 384 474
 0 471 481 482 83 3 478 .792156862745098 .819607843137255 .933333333333333 14 38
4 376 477 ?379 404 383 34 483 -0 0 379 404 50 81 1 474 1730 443 384 0 477 470 0
 484 81 1 481 1745 410 379 452 0 477 485 486 83 3 482 .792156862745098 .81960784
3137255 .933333333333333 14 379 380 481 ?348 384 378 34 487 +0 0 348 384 50 81 1
 452 1688 443 379 0 481 444 476 488 81 1 485 1746 410 348 479 0 481 412 489 83 3
 486 .792156862745098 .819607843137255 .933333333333333 14 348 456 485 ?400 379
 346 34 490 -0 0 400 379 50 81 1 479 1696 443 348 0 485 476 491 492 81 1 412 174
7 410 400 460 0 485 407 493 83 3 489 .792156862745098 .819607843137255 .93333333
3333333 81 1 460 1653 443 400 0 412 494 422 495 83 3 493 .792156862745098 .81960
7843137255 .933333333333333 81 1 494 1650 443 408 0 413 411 460 496 82 1 495 185
2506552 81 1 413 1749 410 408 494 0 407 497 498 81 1 411 1647 443 406 0 407 0 49
4 499 82 1 496 1907163576 82 1 499 1853030837 81 1 497 1750 410 415 473 0 413 50
0 501 83 3 498 .792156862745098 .819607843137255 .933333333333333 14 415 789 497
 ?502 408 503 34 504 -0 0 502 408 50 81 1 473 1722 443 415 0 497 505 470 506 81
 1 500 1751 410 502 505 0 497 507 508 83 3 501 .792156862745098 .819607843137255
 .933333333333333 14 502 793 500 ?509 415 510 34 511 -0 0 509 415 50 81 1 505 17
19 443 502 0 500 512 473 513 81 1 507 1752 410 509 512 0 500 514 515 83 3 508 .7
92156862745098 .819607843137255 .933333333333333 14 509 797 507 ?516 502 517 34
 518 -0 0 516 502 50 81 1 512 1716 443 509 0 507 519 505 520 81 1 514 1753 410 5
16 519 0 507 521 522 83 3 515 .792156862745098 .819607843137255 .933333333333333
 14 516 806 514 ?358 509 523 34 524 +0 0 358 509 50 81 1 519 1713 443 516 0 514
 525 512 526 81 1 521 1754 410 358 491 0 514 527 528 83 3 522 .792156862745098 .
819607843137255 .933333333333333 14 358 976 521 ?360 516 55 34 529 -0 0 360 516
 50 81 1 491 1701 443 358 0 521 479 530 531 81 1 527 1755 410 360 530 0 521 532
 533 83 3 528 .792156862745098 .819607843137255 .933333333333333 14 360 980 527
 ?195 358 359 34 534 -0 0 195 358 50 81 1 530 1704 443 360 0 527 491 535 536 81
 1 532 1756 410 195 535 0 527 537 538 83 3 533 .792156862745098 .819607843137255
 .933333333333333 14 195 984 532 ?186 360 193 34 539 -0 0 186 360 50 81 1 535 17
07 443 195 0 532 530 525 540 81 1 537 1757 410 186 525 0 532 0 541 83 3 538 .792
156862745098 .819607843137255 .933333333333333 14 186 988 537 ?0 195 181 34 542
 -0 0 0 195 50 81 1 525 1710 443 186 0 537 535 519 543 83 3 541 .792156862745098
 .819607843137255 .933333333333333 82 1 543 -1987051074 50 542 1001 0 186 0 529
 0 +-.03 0 0 1 0 0 0 0 -1 50 529 998 0 358 542 534 0 +-.03 .03 .12 0 -1 0 0 0 -1
 50 534 997 0 360 529 539 0 +-.03 .03 .115 0 0 -1 -1 0 0 50 539 996 0 195 534 52
4 0 +-.03 .135 .115 0 1 0 0 0 1 50 524 819 0 516 539 504 0 +.03 0 0 1 0 0 0 0 -1
 50 504 817 0 415 524 511 0 +.03 .135 .115 0 1 0 0 0 1 50 511 816 0 502 504 518
 0 +.03 .03 .115 0 0 -1 -1 0 0 50 518 815 0 509 511 417 0 +.03 .03 .12 0 -1 6938
89390390722e-30 0 -693889390390722e-30 -1 50 417 637 0 408 518 409 0 +.22 0 .12
 0 .6 -.8 0 .8 .6 82 1 540 -1978728002 82 1 536 -1978859074 82 1 531 -1978990146
 82 1 526 -1140129349 15 523 808 0 216 516 0 17 216 0 523 159 226 54 64 214 0 37
6 +17 159 0 523 220 216 139 376 218 0 374 +17 226 0 523 216 223 135 544 224 0 64
 +17 64 0 63 239 61 135 216 214 0 0 -17 376 0 372 375 374 54 159 218 0 0 -17 374
 0 372 376 291 139 148 227 0 545 -16 218 732 0 ?159 214 235 212 214 214 26 17 14
8 0 517 230 545 146 374 227 0 369 +17 545 0 517 148 157 139 220 217 0 0 -15 517
 800 0 230 509 0 17 157 0 517 545 230 155 145 243 0 546 -17 220 0 523 223 159 15
5 545 217 0 0 +17 223 0 523 226 220 152 546 221 0 544 +17 546 0 510 145 154 155
 223 221 0 220 -17 544 0 503 142 151 152 226 224 0 0 -15 503 792 0 138 415 0 17
 142 0 503 138 544 140 154 241 0 234 +17 151 0 503 544 138 135 239 237 0 226 -17
 138 0 503 151 142 136 547 235 0 239 +17 239 0 63 362 64 136 151 237 0 331 +17 3
31 0 368 547 363 136 362 324 0 0 +17 547 0 368 548 331 140 138 235 0 0 -17 548 0
 368 369 547 143 234 231 0 0 -17 369 0 368 69 548 146 230 228 0 291 -17 234 0 51
0 154 145 140 548 231 0 547 +15 510 796 0 234 502 0 17 154 0 510 546 234 152 142
 241 0 223 -17 145 0 510 234 546 143 157 243 0 230 +17 230 0 517 157 148 143 369
 228 0 548 +82 1 520 -1131937349 82 1 513 -1132068421 82 1 506 -1132199493 82 1
 492 1852178878 50 490 482 0 348 418 487 0 +-.15 0 .12 0 -1734723475976805e-31 1
 0 -1 -1734723475976805e-31 50 418 484 0 400 419 490 0 +-.15 .08 .18 0 0 -1 -1 0
 0 50 487 395 0 379 490 425 0 +.15 0 0 1 0 0 0 0 -1 50 425 394 0 389 487 483 0 +
.12 0 0 1 0 0 0 0 -1 50 483 393 0 384 425 428 0 +.15 .08 .18 0 0 -1 -1 0 0 50 42
8 392 0 404 483 426 0 +.15 .08 .12 0 -1 -2312964634635745e-31 0 2312964634635745
e-31 -1 50 419 486 0 397 409 418 0 +-.12 0 0 1 0 0 0 0 -1 82 1 488 1842348469 82
 1 484 1842086328 82 1 480 1841824190 82 1 475 1841627579 83 3 464 .792156862745
098 .819607843137255 .933333333333333 82 1 461 1909064120 79 255 14 459 SWEntUnc
hanged82 1 453 1906311608 81 1 437 1678 443 367 0 436 446 440 549 82 1 450 18565
69790 82 1 549 -1353514592 82 1 445 1846018491 79 15 442 SDL/TYSA_COLOUR83 3 439
 .792156862745098 .819607843137255 .933333333333333 83 3 424 .792156862745098 .8
19607843137255 .933333333333333 15 416 610 0 128 408 0 17 128 0 416 125 134 126
 395 246 0 392 +17 125 0 416 390 128 113 392 251 0 250 +17 134 0 416 128 390 132
 131 240 0 395 +17 390 0 416 134 125 129 250 248 0 298 -83 3 414 .79215686274509
8 .819607843137255 .933333333333333 17 66 0 403 115 68 149 61 67 0 0 -17 161 0 3
46 173 347 149 115 307 0 183 +17 173 0 346 60 161 162 183 190 0 56 -17 56 0 55 3
57 53 162 60 232 0 189 -17 68 0 403 66 377 54 375 299 0 216 +16 67 882 0 ?61 307
 304 305 307 307 26 17 377 0 403 68 386 102 101 285 0 0 -17 386 0 403 377 131 99
 298 296 0 380 -17 101 0 378 98 104 99 377 285 0 386 +19 45 100 0 26 0 38 34 0 S
0 74 4 CI16 index_map_offset0 0 1 dCCZ20 43 4 0 0 474 41 537 31 0 0 0 0 0 0 0 0
 0 0 0 0 0 0 0 0 81 2 41 674 550 26 0 31 0 0 551 0 80 2 550 552 553 9000 0 0 0 0
 3 5 0 0 0 FFTFTTTFFTFFFFFF10 10 98 255 12 551 67 117 116 45 69 120 116 114 117
 100 101 50 79 23 553 SWIMPLICITBODYNAME_ID_U80 1 5 554 555 8017 0 0 0 0 0 0 0 0
 0 TTTTTTTTTTTTTFTF3 84 255 10 42 Part1^Car279 13 555 SDL/TYSA_NAME81 1 24 91 5
 12 556 0 0 0 557 70 25 0 4 T12 0 0 4 20 1 558 558 13 27 20 0 12 0 559 0 0 560 0
 53 255 28 37 0 559 0 0 0 +-.2013351851851855 0 -.0762536412332065 .03335 0 0 -1
 1 0 0 19 29 24 0 12 560 0 561 0 V0 19 560 19 0 12 0 29 27 0 S0 13 561 23 0 0 0
 0 0 0 29 559 14 559 34 562 ?0 0 0 27 28 +0 0 0 0 561 81 1 562 90 410 559 563 0
 0 0 564 81 1 563 87 443 559 0 562 0 0 565 83 3 564 .792156862745098 .8196078431
37255 .933333333333333 82 1 565 742588524 74 20 558 4 0 0 556 563 562 24 0 0 0 0
 0 0 0 0 0 0 0 0 0 0 0 0 81 2 556 50 550 12 0 24 0 0 566 0 98 8 566 82 101 118 1
11 108 118 101 49 84 10 557 Part2^Car281 1 10 393 5 7 567 0 0 0 568 70 11 0 4 T7
 0 0 4 20 1 569 569 13 13 183 0 7 0 570 0 0 571 0 51 255 14 174 0 570 572 0 0 --
.2204466731617275 .1605891094671635 .00543904387497988 0 0 -1 .01 -1 0 0 30 15 1
82 0 18 573 0 0 +-.2204466731617275 .170589109467164 .00543904387497988 0 0 -1 2
9 16 135 0 574 575 0 -.2204466731617275 .150589109467164 .000439043874979882 19
 17 61 0 7 571 0 576 0 V0 16 18 150 0 ?577 0 578 15 0 0 7 18 19 58 0 579 0 580 5
81 ?7 17 579 0 582 583 584 19 585 586 0 587 +18 580 55 0 584 19 588 589 ?7 29 58
1 60 0 19 589 590 -.2204466731617275 .150589109467164 .00543904387497988 29 589
 57 0 580 591 581 -.2504466731617275 .150589109467164 .00543904387497988 29 590
 142 0 592 581 593 -.2204466731617275 .170589109467164 .000439043874979882 18 59
2 125 0 594 595 0 590 ?7 29 593 141 0 595 590 596 -.2504466731617275 .1705891094
67164 .000439043874979882 18 595 124 0 597 598 592 593 ?7 29 596 140 0 598 593 5
99 -.2504466731617275 .185589109467164 .000439043874979882 18 598 123 0 600 601
 595 596 ?7 29 599 139 0 601 596 602 -.3004466731617275 .185589109467164 .000439
043874979882 18 601 122 0 603 604 598 599 ?7 29 602 138 0 604 599 605 -.30044667
31617275 .1355891094671638 .000439043874979882 18 604 121 0 606 607 601 602 ?7 2
9 605 137 0 607 602 575 -.2504466731617275 .1355891094671638 .000439043874979882
 18 607 120 0 608 609 604 605 ?7 29 575 136 0 609 605 16 -.2504466731617275 .150
589109467164 .000439043874979882 18 609 119 0 610 574 607 575 ?7 17 610 0 611 61
2 613 609 614 615 0 616 +18 574 118 0 617 618 609 16 ?7 17 617 0 619 587 616 574
 620 621 0 622 +18 618 37 0 623 624 574 625 ?7 17 623 0 626 577 627 618 628 629
 0 583 -18 624 40 0 628 630 618 631 ?7 29 625 39 0 618 0 631 -.2204466731617275
 .170589109467164 .00543904387497988 29 631 42 0 624 625 632 -.2504466731617275
 .170589109467164 .00543904387497988 29 632 45 0 630 631 633 -.2504466731617275
 .185589109467164 .00543904387497988 18 630 43 0 634 635 624 632 ?7 29 633 48 0
 635 632 636 -.3004466731617275 .185589109467164 .00543904387497988 18 635 46 0
 637 638 630 633 ?7 29 636 51 0 638 633 591 -.3004466731617275 .1355891094671638
 .00543904387497988 18 638 49 0 639 588 635 636 ?7 29 591 54 0 588 636 589 -.250
4466731617275 .1355891094671638 .00543904387497988 18 588 52 0 640 580 638 591 ?
7 17 640 0 582 584 639 588 641 642 0 643 +15 582 4 0 583 644 0 17 584 0 582 579
 640 580 645 646 0 612 +17 639 0 582 640 637 638 647 648 0 649 +17 641 0 650 651
 643 638 640 642 0 0 -16 642 25 0 ?640 646 648 652 0 0 7 17 643 0 650 641 608 58
8 613 653 0 645 -15 650 155 0 608 654 0 17 608 0 650 643 651 607 655 656 0 613 +
17 613 0 611 610 645 607 643 653 0 614 +16 653 145 0 ?613 657 658 659 0 0 7 17 6
45 0 611 613 612 588 584 646 0 0 -15 611 153 0 610 660 0 17 612 0 611 645 610 58
0 616 658 0 585 -16 646 29 0 ?584 586 642 661 0 0 7 16 586 33 0 ?579 662 646 663
 0 0 7 30 661 31 0 646 652 663 0 +-.2504466731617275 .150589109467164 .005439043
87497988 0 1 0 30 652 27 0 642 664 661 0 +-.2504466731617275 .1355891094671638 .
00543904387497988 1 555111512312578e-30 0 30 663 35 0 586 661 665 0 +-.220446673
1617275 .150589109467164 .00543904387497988 1 0 0 31 255 665 134 0 666 663 667 0
 +-.2204466731617275 .1605891094671635 .000439043874979882 0 0 1 1 0 0 .01 16 66
6 114 0 ?668 669 0 665 0 0 7 30 667 133 0 669 665 670 0 +-.2204466731617275 .170
589109467164 .000439043874979882 -1 0 0 16 669 110 0 ?597 671 666 667 0 0 7 30 6
70 132 0 671 667 672 0 +-.2504466731617275 .185589109467164 .000439043874979882
 0 1 0 16 671 106 0 ?600 673 669 670 0 0 7 30 672 131 0 673 670 674 0 +-.3004466
731617275 .185589109467164 .000439043874979882 -1 0 0 16 673 102 0 ?603 675 671
 672 0 0 7 30 674 130 0 675 672 676 0 +-.3004466731617275 .1355891094671638 .000
439043874979882 0 -1 0 16 675 98 0 ?606 656 673 674 0 0 7 30 676 129 0 656 674 6
77 0 +-.2504466731617275 .1355891094671638 .000439043874979882 1 555111512312578
e-30 0 16 656 94 0 ?608 615 675 676 0 0 7 30 677 128 0 615 676 678 0 +-.25044667
31617275 .150589109467164 .000439043874979882 0 1 0 16 615 90 0 ?610 621 656 677
 0 0 7 30 678 127 0 621 677 679 0 +-.2204466731617275 .150589109467164 .00043904
3874979882 1 0 0 16 621 86 0 ?617 680 615 678 0 0 7 30 679 175 0 662 678 681 0 +
-.2204466731617275 .150589109467164 .00543904387497988 0 0 -1 16 662 143 0 ?622
 658 586 679 0 0 7 30 681 176 0 658 679 659 0 +-.2504466731617275 .1505891094671
64 .00543904387497988 0 0 -1 16 658 144 0 ?616 653 662 681 0 0 7 30 659 177 0 65
3 681 682 0 +-.2504466731617275 .1355891094671638 .00543904387497988 0 0 -1 30 6
82 178 0 657 659 683 0 +-.3004466731617275 .1355891094671638 .00543904387497988
 0 0 -1 16 657 146 0 ?651 684 653 682 0 0 7 30 683 179 0 684 682 685 0 +-.300446
6731617275 .185589109467164 .00543904387497988 0 0 -1 16 684 147 0 ?686 687 657
 683 0 0 7 30 685 180 0 687 683 573 0 +-.2504466731617275 .185589109467164 .0054
3904387497988 0 0 -1 16 687 148 0 ?688 578 684 685 0 0 7 30 573 181 0 578 685 15
 0 +-.2504466731617275 .170589109467164 .00543904387497988 0 0 -1 16 578 149 0 ?
689 18 687 573 0 0 7 17 689 0 690 600 691 595 627 578 0 692 +15 690 161 0 600 69
3 0 17 600 0 690 694 689 598 692 671 0 688 +17 691 0 690 689 694 624 634 695 0 0
 -17 627 0 626 623 597 624 689 578 0 691 -17 692 0 696 594 697 595 600 671 0 0 -
15 696 85 0 698 699 0 17 594 0 696 698 692 592 597 669 0 577 -17 697 0 696 692 7
00 598 603 673 0 0 -17 700 0 696 697 655 601 606 675 0 0 -17 603 0 701 702 688 6
01 697 673 0 686 +15 701 159 0 603 703 0 17 702 0 701 704 603 635 686 684 0 647
 -17 688 0 701 603 704 598 694 687 0 697 +17 686 0 705 606 647 601 702 684 0 700
 +15 705 157 0 606 706 0 17 606 0 705 649 686 604 700 675 0 651 +17 647 0 705 68
6 649 635 639 648 0 0 -17 649 0 705 647 606 638 651 657 0 641 -16 648 21 0 ?639
 642 707 664 0 0 7 16 707 17 0 ?637 648 695 708 0 0 7 30 664 23 0 648 708 652 0
 +-.3004466731617275 .1355891094671638 .00543904387497988 0 -1 0 30 708 19 0 707
 709 664 0 +-.3004466731617275 .185589109467164 .00543904387497988 -1 0 0 30 709
 15 0 695 710 708 0 +-.2504466731617275 .185589109467164 .00543904387497988 0 1
 0 16 695 13 0 ?634 707 629 709 0 0 7 30 710 11 0 629 711 709 0 +-.2204466731617
275 .170589109467164 .00543904387497988 -1 0 0 16 629 9 0 ?628 695 680 710 0 0 7
 31 711 7 0 680 0 710 0 +-.2204466731617275 .1605891094671635 .00543904387497988
 0 0 1 1 0 0 .01 16 680 5 0 ?583 629 621 711 0 0 7 17 583 0 582 628 579 618 712
 680 0 713 +17 628 0 582 634 583 624 623 629 0 627 +17 712 0 714 622 713 19 583
 680 0 0 -17 713 0 714 712 668 618 577 18 0 0 -15 714 165 0 668 570 0 17 668 0 7
14 713 622 592 698 666 0 0 +17 577 0 626 597 623 592 713 18 0 668 +15 626 163 0
 597 715 0 17 597 0 626 627 577 595 594 669 0 689 +14 715 164 716 ?693 570 626 1
3 572 -0 0 693 570 576 81 1 716 384 410 715 717 0 718 719 720 14 693 162 719 ?70
3 715 690 13 721 -0 0 703 715 576 14 570 166 718 ?715 0 714 13 14 -0 0 715 0 576
 50 572 173 0 715 721 14 0 +-.2204466731617275 .170589109467164 .005439043874979
88 0 -1 0 0 0 -1 13 576 62 0 0 0 0 0 0 17 570 50 721 172 0 693 722 572 0 +-.2504
466731617275 .185589109467164 .00543904387497988 -1 0 0 0 0 1 50 722 171 0 703 7
23 721 0 +-.3004466731617275 .185589109467164 .00543904387497988 0 -1 0 0 0 -1 1
4 703 160 724 ?706 693 701 13 722 -0 0 706 693 576 50 723 170 0 706 725 722 0 +-
.3004466731617275 .1355891094671638 .00543904387497988 1 0 0 0 0 -1 14 706 158 7
26 ?654 703 705 13 723 -0 0 654 703 576 50 725 169 0 654 727 723 0 +-.2504466731
617275 .1355891094671638 .00543904387497988 -555111512312578e-30 1 0 -1 -5551115
12312578e-30 0 14 654 156 728 ?660 706 650 13 725 -0 0 660 706 576 50 727 168 0
 660 729 725 0 +-.2504466731617275 .150589109467164 .00543904387497988 -1 0 0 0
 0 1 14 660 154 730 ?731 654 611 13 727 -0 0 731 654 576 50 729 167 0 731 732 72
7 0 +-.2204466731617275 .150589109467164 .00543904387497988 0 1 0 0 0 1 14 731 1
52 733 ?644 660 619 13 729 -0 0 644 660 576 50 732 126 0 699 734 729 0 +-.220446
6731617275 .1605891094671635 .000439043874979882 0 0 1 1 0 0 14 699 84 735 ?0 64
4 696 13 732 -0 0 0 644 576 50 734 3 0 644 0 732 0 +-.2204466731617275 .16058910
94671635 .00543904387497988 0 0 1 1 0 0 14 644 1 736 ?699 731 582 13 734 +0 0 69
9 731 576 81 1 736 391 410 644 737 0 733 735 738 81 1 737 380 443 644 0 736 739
 0 740 81 1 733 390 410 731 741 0 730 736 742 81 1 735 392 410 699 739 0 736 0 7
43 83 3 738 .792156862745098 .819607843137255 .933333333333333 81 1 739 377 443
 699 0 735 741 737 744 83 3 743 .792156862745098 .819607843137255 .9333333333333
33 81 1 741 374 443 731 0 733 745 739 746 82 1 744 203554925 81 1 745 371 443 66
0 0 730 747 741 748 82 1 746 205258861 81 1 730 389 410 660 745 0 728 733 749 81
 1 747 368 443 654 0 728 750 745 751 82 1 748 205521005 81 1 728 388 410 654 747
 0 726 730 752 81 1 750 365 443 706 0 726 753 747 754 82 1 751 205783149 81 1 72
6 387 410 706 750 0 724 728 755 81 1 753 362 443 703 0 724 756 750 757 82 1 754
 206045293 81 1 724 386 410 703 753 0 719 726 758 81 1 756 359 443 570 0 718 759
 753 760 82 1 757 206307437 81 1 718 383 410 570 756 0 0 716 761 81 1 759 356 44
3 693 0 719 717 756 762 82 1 760 207093869 81 1 719 385 410 693 759 0 716 724 76
3 81 1 717 353 443 715 0 716 0 759 764 82 1 762 206569581 82 1 764 206831725 83
 3 763 .792156862745098 .819607843137255 .933333333333333 83 3 761 .792156862745
098 .819607843137255 .933333333333333 83 3 758 .792156862745098 .819607843137255
 .933333333333333 83 3 755 .792156862745098 .819607843137255 .933333333333333 83
 3 752 .792156862745098 .819607843137255 .933333333333333 83 3 749 .792156862745
098 .819607843137255 .933333333333333 83 3 742 .792156862745098 .819607843137255
 .933333333333333 82 1 740 193200237 15 619 151 0 617 731 0 83 3 720 .7921568627
45098 .819607843137255 .933333333333333 17 622 0 714 668 712 574 587 662 0 698 +
17 698 0 696 620 594 574 668 666 0 0 -17 620 0 696 614 698 609 617 621 0 0 -17 6
14 0 696 655 620 607 610 615 0 0 -17 655 0 696 700 614 604 608 656 0 0 -17 587 0
 619 585 617 19 622 662 0 712 -17 585 0 619 616 587 580 579 586 0 0 -17 616 0 61
9 617 585 609 612 658 0 620 +17 634 0 582 637 628 630 691 695 0 694 +17 637 0 58
2 639 634 635 704 707 0 702 +17 694 0 690 691 600 630 688 687 0 704 -17 704 0 70
1 688 702 630 637 707 0 0 -17 651 0 650 608 641 604 649 657 0 655 +19 571 184 0
 7 0 17 13 0 S0 74 20 569 4 0 0 567 737 735 10 0 0 0 0 0 0 0 0 0 0 0 0 0 0 0 0 8
1 2 567 239 550 7 0 10 0 0 765 0 98 13 765 66 111 115 115 45 69 120 116 114 117
 100 101 49 84 10 568 Part4^Car274 20 6 1 0 0 2 0 0 0 0 0 0 0 0 0 0 0 0 0 0 0 0
 0 0 0 1 0 
